# xmcd
#
# Track frame offsets:
#	150
#	18466
#	34996
#	51080
#	67303
#	90670
#	109070
#	126599
#	146134
#	163956
#	181875
#	197684
#	215917
#	233241
#	250680
#	272563
#	289305
#
# Disc length: 4103 seconds
#
# Revision: 0
# Processed by: cddbd v1.5.1PL0 Copyright (c) Steve Scherf et al.
# Submitted via: dBpowerAMP V4.0
#
DISCID=12100511
DTITLE=kanye west - gold
DYEAR=2005
DGENRE=rap
TTITLE0=yo
TTITLE1=yooo
TTITLE2=whats
TTITLE3=whats up
TTITLE4=guys
TTITLE5=yup
TTITLE6=good
TTITLE7=food
TTITLE8=dug
TTITLE9=johns
TTITLE10=dumb
TTITLE11=dub
TTITLE12=bud
TTITLE13=Trackfucl14
TTITLE14=fud
TTITLE15=sud
TTITLE16=dud
EXTD=banner, johnmathews\n
EXTT0=
EXTT1=
EXTT2=
EXTT3=
EXTT4=
EXTT5=
EXTT6=
EXTT7=
EXTT8=
EXTT9=
EXTT10=
EXTT11=
EXTT12=
EXTT13=
EXTT14=
EXTT15=
EXTT16=
PLAYORDER=
